<svg width="621" height="150" viewBox="0 0 621 150" fill="none" xmlns="http://www.w3.org/2000/svg">
<rect x="0.5" y="0.5" width="620" height="149" rx="7.5" fill="#F7F8FD" stroke="#C2C2C2" stroke-dasharray="10 10"/>
<path d="M319 63.6667H300.334V45H312.334V42.3334H300.334C298.867 42.3334 297.667 43.5334 297.667 45V63.6667C297.667 65.1334 298.867 66.3334 300.334 66.3334H319C320.467 66.3334 321.667 65.1334 321.667 63.6667V51.6667H319V63.6667ZM308.614 59.44L306 56.2934L302.334 61H317L312.28 54.72L308.614 59.44ZM321.667 42.3334V38.3334H319V42.3334H315C315.014 42.3467 315 45 315 45H319V48.9867C319.014 49 321.667 48.9867 321.667 48.9867V45H325.667V42.3334H321.667Z" fill="#9E9E9E"/>
<path d="M250.931 91V83.488H248.003V82.54H254.999V83.488H252.059V91H250.931ZM257.45 91.108C256.922 91.108 256.458 90.984 256.058 90.736C255.658 90.488 255.346 90.128 255.122 89.656C254.898 89.184 254.786 88.624 254.786 87.976C254.786 87.328 254.898 86.772 255.122 86.308C255.346 85.836 255.658 85.476 256.058 85.228C256.458 84.98 256.922 84.856 257.45 84.856C257.986 84.856 258.45 84.992 258.842 85.264C259.242 85.528 259.506 85.892 259.634 86.356H259.49L259.622 84.964H260.678C260.654 85.204 260.63 85.444 260.606 85.684C260.59 85.924 260.582 86.16 260.582 86.392V91H259.49V89.62H259.622C259.494 90.076 259.23 90.44 258.83 90.712C258.438 90.976 257.978 91.108 257.45 91.108ZM257.702 90.244C258.246 90.244 258.682 90.052 259.01 89.668C259.338 89.284 259.502 88.72 259.502 87.976C259.502 87.232 259.338 86.672 259.01 86.296C258.682 85.92 258.246 85.732 257.702 85.732C257.158 85.732 256.718 85.92 256.382 86.296C256.054 86.672 255.89 87.232 255.89 87.976C255.89 88.72 256.054 89.284 256.382 89.668C256.71 90.052 257.15 90.244 257.702 90.244ZM262.412 91V86.392C262.412 86.16 262.404 85.924 262.388 85.684C262.372 85.444 262.348 85.204 262.316 84.964H263.372L263.492 86.26H263.348C263.508 85.812 263.764 85.468 264.116 85.228C264.468 84.98 264.888 84.856 265.376 84.856C265.872 84.856 266.28 84.976 266.6 85.216C266.92 85.448 267.136 85.816 267.248 86.32H267.068C267.22 85.872 267.488 85.516 267.872 85.252C268.256 84.988 268.704 84.856 269.216 84.856C269.88 84.856 270.38 85.052 270.716 85.444C271.052 85.828 271.22 86.428 271.22 87.244V91H270.128V87.304C270.128 86.752 270.032 86.356 269.84 86.116C269.648 85.868 269.344 85.744 268.928 85.744C268.44 85.744 268.056 85.912 267.776 86.248C267.496 86.576 267.356 87.024 267.356 87.592V91H266.264V87.304C266.264 86.752 266.168 86.356 265.976 86.116C265.792 85.868 265.488 85.744 265.064 85.744C264.576 85.744 264.192 85.912 263.912 86.248C263.64 86.576 263.504 87.024 263.504 87.592V91H262.412ZM276.138 91.108C275.602 91.108 275.138 90.976 274.746 90.712C274.354 90.44 274.094 90.068 273.966 89.596H274.098V91H273.006V82.168H274.098V86.344H273.966C274.102 85.88 274.362 85.516 274.746 85.252C275.138 84.988 275.602 84.856 276.138 84.856C276.674 84.856 277.142 84.984 277.542 85.24C277.942 85.488 278.25 85.844 278.466 86.308C278.69 86.772 278.802 87.332 278.802 87.988C278.802 88.636 278.69 89.196 278.466 89.668C278.25 90.132 277.938 90.488 277.53 90.736C277.13 90.984 276.666 91.108 276.138 91.108ZM275.886 90.244C276.43 90.244 276.866 90.056 277.194 89.68C277.53 89.296 277.698 88.732 277.698 87.988C277.698 87.244 277.53 86.684 277.194 86.308C276.866 85.924 276.43 85.732 275.886 85.732C275.334 85.732 274.894 85.92 274.566 86.296C274.246 86.672 274.086 87.232 274.086 87.976C274.086 88.72 274.246 89.284 274.566 89.668C274.894 90.052 275.334 90.244 275.886 90.244ZM282.575 91.108C282.047 91.108 281.583 90.984 281.183 90.736C280.783 90.488 280.471 90.128 280.247 89.656C280.023 89.184 279.911 88.624 279.911 87.976C279.911 87.328 280.023 86.772 280.247 86.308C280.471 85.836 280.783 85.476 281.183 85.228C281.583 84.98 282.047 84.856 282.575 84.856C283.111 84.856 283.575 84.992 283.967 85.264C284.367 85.528 284.631 85.892 284.759 86.356H284.615L284.747 84.964H285.803C285.779 85.204 285.755 85.444 285.731 85.684C285.715 85.924 285.707 86.16 285.707 86.392V91H284.615V89.62H284.747C284.619 90.076 284.355 90.44 283.955 90.712C283.563 90.976 283.103 91.108 282.575 91.108ZM282.827 90.244C283.371 90.244 283.807 90.052 284.135 89.668C284.463 89.284 284.627 88.72 284.627 87.976C284.627 87.232 284.463 86.672 284.135 86.296C283.807 85.92 283.371 85.732 282.827 85.732C282.283 85.732 281.843 85.92 281.507 86.296C281.179 86.672 281.015 87.232 281.015 87.976C281.015 88.72 281.179 89.284 281.507 89.668C281.835 90.052 282.275 90.244 282.827 90.244ZM287.537 91V82.168H288.629V86.272H288.473C288.649 85.808 288.933 85.456 289.325 85.216C289.717 84.976 290.169 84.856 290.681 84.856C291.409 84.856 291.945 85.052 292.289 85.444C292.641 85.836 292.817 86.428 292.817 87.22V91H291.725V87.28C291.725 86.744 291.621 86.356 291.413 86.116C291.205 85.868 290.865 85.744 290.393 85.744C289.865 85.744 289.437 85.908 289.109 86.236C288.789 86.564 288.629 87 288.629 87.544V91H287.537ZM294.603 91V82.168H295.695V87.628H295.719L298.443 84.964H299.799L296.559 88.132L296.571 87.616L300.087 91H298.695L295.719 88.192H295.695V91H294.603ZM303.13 91.108C302.602 91.108 302.138 90.984 301.738 90.736C301.338 90.488 301.026 90.128 300.802 89.656C300.578 89.184 300.466 88.624 300.466 87.976C300.466 87.328 300.578 86.772 300.802 86.308C301.026 85.836 301.338 85.476 301.738 85.228C302.138 84.98 302.602 84.856 303.13 84.856C303.666 84.856 304.13 84.992 304.522 85.264C304.922 85.528 305.186 85.892 305.314 86.356H305.17L305.302 84.964H306.358C306.334 85.204 306.31 85.444 306.286 85.684C306.27 85.924 306.262 86.16 306.262 86.392V91H305.17V89.62H305.302C305.174 90.076 304.91 90.44 304.51 90.712C304.118 90.976 303.658 91.108 303.13 91.108ZM303.382 90.244C303.926 90.244 304.362 90.052 304.69 89.668C305.018 89.284 305.182 88.72 305.182 87.976C305.182 87.232 305.018 86.672 304.69 86.296C304.362 85.92 303.926 85.732 303.382 85.732C302.838 85.732 302.398 85.92 302.062 86.296C301.734 86.672 301.57 87.232 301.57 87.976C301.57 88.72 301.734 89.284 302.062 89.668C302.39 90.052 302.83 90.244 303.382 90.244ZM308.092 91V86.392C308.092 86.16 308.084 85.924 308.068 85.684C308.052 85.444 308.028 85.204 307.996 84.964H309.052L309.172 86.26H309.028C309.212 85.804 309.496 85.456 309.88 85.216C310.264 84.976 310.712 84.856 311.224 84.856C311.936 84.856 312.472 85.052 312.832 85.444C313.192 85.828 313.372 86.428 313.372 87.244V91H312.28V87.304C312.28 86.752 312.172 86.356 311.956 86.116C311.74 85.868 311.404 85.744 310.948 85.744C310.404 85.744 309.972 85.908 309.652 86.236C309.34 86.564 309.184 87.008 309.184 87.568V91H308.092ZM318.658 91V85.804H317.482V84.964H318.958L318.658 85.24V84.268C318.658 83.564 318.834 83.032 319.186 82.672C319.538 82.304 320.05 82.12 320.722 82.12C320.882 82.12 321.05 82.132 321.226 82.156C321.41 82.18 321.562 82.22 321.682 82.276V83.164C321.586 83.124 321.466 83.092 321.322 83.068C321.178 83.044 321.038 83.032 320.902 83.032C320.662 83.032 320.454 83.08 320.278 83.176C320.102 83.272 319.97 83.416 319.882 83.608C319.794 83.792 319.75 84.036 319.75 84.34V85.192L319.582 84.964H321.418V85.804H319.75V91H318.658ZM324.839 91.108C324.247 91.108 323.735 90.984 323.303 90.736C322.871 90.48 322.535 90.12 322.295 89.656C322.055 89.184 321.935 88.624 321.935 87.976C321.935 87.336 322.055 86.784 322.295 86.32C322.535 85.848 322.871 85.488 323.303 85.24C323.735 84.984 324.247 84.856 324.839 84.856C325.431 84.856 325.943 84.984 326.375 85.24C326.815 85.488 327.151 85.848 327.383 86.32C327.623 86.784 327.743 87.336 327.743 87.976C327.743 88.624 327.623 89.184 327.383 89.656C327.151 90.12 326.815 90.48 326.375 90.736C325.943 90.984 325.431 91.108 324.839 91.108ZM324.839 90.244C325.383 90.244 325.819 90.052 326.147 89.668C326.475 89.284 326.639 88.72 326.639 87.976C326.639 87.232 326.475 86.672 326.147 86.296C325.819 85.92 325.383 85.732 324.839 85.732C324.287 85.732 323.847 85.92 323.519 86.296C323.199 86.672 323.039 87.232 323.039 87.976C323.039 88.72 323.199 89.284 323.519 89.668C323.847 90.052 324.287 90.244 324.839 90.244ZM331.406 91.108C330.774 91.108 330.294 90.936 329.966 90.592C329.646 90.24 329.486 89.712 329.486 89.008V85.804H328.31V84.964H329.486V83.344L330.578 83.044V84.964H332.282V85.804H330.578V88.912C330.578 89.376 330.658 89.708 330.818 89.908C330.986 90.1 331.226 90.196 331.538 90.196C331.698 90.196 331.834 90.184 331.946 90.16C332.066 90.128 332.174 90.092 332.27 90.052V90.952C332.15 91 332.01 91.036 331.85 91.06C331.698 91.092 331.55 91.108 331.406 91.108ZM335.913 91.108C335.321 91.108 334.809 90.984 334.377 90.736C333.945 90.48 333.609 90.12 333.369 89.656C333.129 89.184 333.009 88.624 333.009 87.976C333.009 87.336 333.129 86.784 333.369 86.32C333.609 85.848 333.945 85.488 334.377 85.24C334.809 84.984 335.321 84.856 335.913 84.856C336.505 84.856 337.017 84.984 337.449 85.24C337.889 85.488 338.225 85.848 338.457 86.32C338.697 86.784 338.817 87.336 338.817 87.976C338.817 88.624 338.697 89.184 338.457 89.656C338.225 90.12 337.889 90.48 337.449 90.736C337.017 90.984 336.505 91.108 335.913 91.108ZM335.913 90.244C336.457 90.244 336.893 90.052 337.221 89.668C337.549 89.284 337.713 88.72 337.713 87.976C337.713 87.232 337.549 86.672 337.221 86.296C336.893 85.92 336.457 85.732 335.913 85.732C335.361 85.732 334.921 85.92 334.593 86.296C334.273 86.672 334.113 87.232 334.113 87.976C334.113 88.72 334.273 89.284 334.593 89.668C334.921 90.052 335.361 90.244 335.913 90.244ZM345.595 91.108C344.867 91.108 344.319 90.912 343.951 90.52C343.591 90.12 343.411 89.516 343.411 88.708V84.964H344.503V88.684C344.503 89.212 344.611 89.6 344.827 89.848C345.043 90.096 345.375 90.22 345.823 90.22C346.327 90.22 346.731 90.056 347.035 89.728C347.347 89.392 347.503 88.948 347.503 88.396V84.964H348.595V91H347.539V89.668H347.695C347.527 90.124 347.255 90.48 346.879 90.736C346.511 90.984 346.083 91.108 345.595 91.108ZM350.432 91V86.392C350.432 86.16 350.424 85.924 350.408 85.684C350.392 85.444 350.368 85.204 350.336 84.964H351.392L351.512 86.26H351.368C351.552 85.804 351.836 85.456 352.22 85.216C352.604 84.976 353.052 84.856 353.564 84.856C354.276 84.856 354.812 85.052 355.172 85.444C355.532 85.828 355.712 86.428 355.712 87.244V91H354.62V87.304C354.62 86.752 354.512 86.356 354.296 86.116C354.08 85.868 353.744 85.744 353.288 85.744C352.744 85.744 352.312 85.908 351.992 86.236C351.68 86.564 351.524 87.008 351.524 87.568V91H350.432ZM359.754 91.108C359.122 91.108 358.642 90.936 358.314 90.592C357.994 90.24 357.834 89.712 357.834 89.008V85.804H356.658V84.964H357.834V83.344L358.926 83.044V84.964H360.63V85.804H358.926V88.912C358.926 89.376 359.006 89.708 359.166 89.908C359.334 90.1 359.574 90.196 359.886 90.196C360.046 90.196 360.182 90.184 360.294 90.16C360.414 90.128 360.522 90.092 360.618 90.052V90.952C360.498 91 360.358 91.036 360.198 91.06C360.046 91.092 359.898 91.108 359.754 91.108ZM363.923 91.108C363.195 91.108 362.647 90.912 362.279 90.52C361.919 90.12 361.739 89.516 361.739 88.708V84.964H362.831V88.684C362.831 89.212 362.939 89.6 363.155 89.848C363.371 90.096 363.703 90.22 364.151 90.22C364.655 90.22 365.059 90.056 365.363 89.728C365.675 89.392 365.831 88.948 365.831 88.396V84.964H366.923V91H365.867V89.668H366.023C365.855 90.124 365.583 90.48 365.207 90.736C364.839 90.984 364.411 91.108 363.923 91.108ZM368.76 91V82.168H369.852V87.628H369.876L372.6 84.964H373.956L370.716 88.132L370.728 87.616L374.244 91H372.852L369.876 88.192H369.852V91H368.76ZM265.767 109.108C265.231 109.108 264.767 108.976 264.375 108.712C263.983 108.44 263.723 108.068 263.595 107.596H263.727V109H262.635V100.168H263.727V104.344H263.595C263.731 103.88 263.991 103.516 264.375 103.252C264.767 102.988 265.231 102.856 265.767 102.856C266.303 102.856 266.771 102.984 267.171 103.24C267.571 103.488 267.879 103.844 268.095 104.308C268.319 104.772 268.431 105.332 268.431 105.988C268.431 106.636 268.319 107.196 268.095 107.668C267.879 108.132 267.567 108.488 267.159 108.736C266.759 108.984 266.295 109.108 265.767 109.108ZM265.515 108.244C266.059 108.244 266.495 108.056 266.823 107.68C267.159 107.296 267.327 106.732 267.327 105.988C267.327 105.244 267.159 104.684 266.823 104.308C266.495 103.924 266.059 103.732 265.515 103.732C264.963 103.732 264.523 103.92 264.195 104.296C263.875 104.672 263.715 105.232 263.715 105.976C263.715 106.72 263.875 107.284 264.195 107.668C264.523 108.052 264.963 108.244 265.515 108.244ZM272.204 109.108C271.676 109.108 271.212 108.984 270.812 108.736C270.412 108.488 270.1 108.128 269.876 107.656C269.652 107.184 269.54 106.624 269.54 105.976C269.54 105.328 269.652 104.772 269.876 104.308C270.1 103.836 270.412 103.476 270.812 103.228C271.212 102.98 271.676 102.856 272.204 102.856C272.74 102.856 273.204 102.992 273.596 103.264C273.996 103.528 274.26 103.892 274.388 104.356H274.244L274.376 102.964H275.432C275.408 103.204 275.384 103.444 275.36 103.684C275.344 103.924 275.336 104.16 275.336 104.392V109H274.244V107.62H274.376C274.248 108.076 273.984 108.44 273.584 108.712C273.192 108.976 272.732 109.108 272.204 109.108ZM272.456 108.244C273 108.244 273.436 108.052 273.764 107.668C274.092 107.284 274.256 106.72 274.256 105.976C274.256 105.232 274.092 104.672 273.764 104.296C273.436 103.92 273 103.732 272.456 103.732C271.912 103.732 271.472 103.92 271.136 104.296C270.808 104.672 270.644 105.232 270.644 105.976C270.644 106.72 270.808 107.284 271.136 107.668C271.464 108.052 271.904 108.244 272.456 108.244ZM279.758 109.108C279.158 109.108 278.638 108.984 278.198 108.736C277.758 108.48 277.414 108.116 277.166 107.644C276.926 107.164 276.806 106.596 276.806 105.94C276.806 105.292 276.93 104.74 277.178 104.284C277.426 103.82 277.77 103.468 278.21 103.228C278.65 102.98 279.166 102.856 279.758 102.856C280.15 102.856 280.53 102.924 280.898 103.06C281.266 103.188 281.566 103.376 281.798 103.624L281.426 104.392C281.194 104.168 280.938 104.004 280.658 103.9C280.378 103.788 280.102 103.732 279.83 103.732C279.238 103.732 278.774 103.924 278.438 104.308C278.102 104.684 277.934 105.232 277.934 105.952C277.934 106.68 278.102 107.24 278.438 107.632C278.774 108.024 279.238 108.22 279.83 108.22C280.094 108.22 280.366 108.168 280.646 108.064C280.926 107.96 281.186 107.796 281.426 107.572L281.798 108.328C281.558 108.584 281.25 108.78 280.874 108.916C280.506 109.044 280.134 109.108 279.758 109.108ZM283.131 109V100.168H284.223V105.628H284.247L286.971 102.964H288.327L285.087 106.132L285.099 105.616L288.615 109H287.223L284.247 106.192H284.223V109H283.131ZM291.959 111.688C291.431 111.688 290.947 111.624 290.507 111.496C290.067 111.368 289.671 111.172 289.319 110.908L289.607 110.104C289.855 110.272 290.099 110.408 290.339 110.512C290.579 110.616 290.827 110.692 291.083 110.74C291.347 110.788 291.619 110.812 291.899 110.812C292.491 110.812 292.935 110.66 293.231 110.356C293.527 110.052 293.675 109.62 293.675 109.06V107.368H293.795C293.667 107.824 293.403 108.188 293.003 108.46C292.611 108.724 292.147 108.856 291.611 108.856C291.067 108.856 290.591 108.736 290.183 108.496C289.783 108.248 289.471 107.9 289.247 107.452C289.023 106.996 288.911 106.464 288.911 105.856C288.911 105.24 289.023 104.708 289.247 104.26C289.471 103.812 289.783 103.468 290.183 103.228C290.591 102.98 291.067 102.856 291.611 102.856C292.147 102.856 292.611 102.988 293.003 103.252C293.395 103.516 293.655 103.88 293.783 104.344L293.675 104.236L293.783 102.964H294.839C294.815 103.204 294.791 103.444 294.767 103.684C294.751 103.924 294.743 104.16 294.743 104.392V108.928C294.743 109.824 294.507 110.508 294.035 110.98C293.571 111.452 292.879 111.688 291.959 111.688ZM291.851 107.992C292.403 107.992 292.843 107.804 293.171 107.428C293.499 107.052 293.663 106.528 293.663 105.856C293.663 105.176 293.499 104.652 293.171 104.284C292.843 103.916 292.403 103.732 291.851 103.732C291.291 103.732 290.843 103.916 290.507 104.284C290.179 104.652 290.015 105.176 290.015 105.856C290.015 106.528 290.179 107.052 290.507 107.428C290.843 107.804 291.291 107.992 291.851 107.992ZM296.56 109V104.44C296.56 104.2 296.552 103.956 296.536 103.708C296.528 103.452 296.508 103.204 296.476 102.964H297.532L297.664 104.476L297.484 104.488C297.564 104.12 297.7 103.816 297.892 103.576C298.092 103.328 298.328 103.148 298.6 103.036C298.88 102.916 299.168 102.856 299.464 102.856C299.592 102.856 299.7 102.86 299.788 102.868C299.876 102.876 299.964 102.896 300.052 102.928L300.028 103.9C299.908 103.852 299.796 103.824 299.692 103.816C299.596 103.8 299.476 103.792 299.332 103.792C298.98 103.792 298.676 103.872 298.42 104.032C298.172 104.192 297.98 104.404 297.844 104.668C297.716 104.932 297.652 105.216 297.652 105.52V109H296.56ZM303.476 109.108C302.884 109.108 302.372 108.984 301.94 108.736C301.508 108.48 301.172 108.12 300.932 107.656C300.692 107.184 300.572 106.624 300.572 105.976C300.572 105.336 300.692 104.784 300.932 104.32C301.172 103.848 301.508 103.488 301.94 103.24C302.372 102.984 302.884 102.856 303.476 102.856C304.068 102.856 304.58 102.984 305.012 103.24C305.452 103.488 305.788 103.848 306.02 104.32C306.26 104.784 306.38 105.336 306.38 105.976C306.38 106.624 306.26 107.184 306.02 107.656C305.788 108.12 305.452 108.48 305.012 108.736C304.58 108.984 304.068 109.108 303.476 109.108ZM303.476 108.244C304.02 108.244 304.456 108.052 304.784 107.668C305.112 107.284 305.276 106.72 305.276 105.976C305.276 105.232 305.112 104.672 304.784 104.296C304.456 103.92 304.02 103.732 303.476 103.732C302.924 103.732 302.484 103.92 302.156 104.296C301.836 104.672 301.676 105.232 301.676 105.976C301.676 106.72 301.836 107.284 302.156 107.668C302.484 108.052 302.924 108.244 303.476 108.244ZM309.994 109.108C309.266 109.108 308.718 108.912 308.35 108.52C307.99 108.12 307.81 107.516 307.81 106.708V102.964H308.902V106.684C308.902 107.212 309.01 107.6 309.226 107.848C309.442 108.096 309.774 108.22 310.222 108.22C310.726 108.22 311.13 108.056 311.434 107.728C311.746 107.392 311.902 106.948 311.902 106.396V102.964H312.994V109H311.938V107.668H312.094C311.926 108.124 311.654 108.48 311.278 108.736C310.91 108.984 310.482 109.108 309.994 109.108ZM314.83 109V104.392C314.83 104.16 314.822 103.924 314.806 103.684C314.79 103.444 314.766 103.204 314.734 102.964H315.79L315.91 104.26H315.766C315.95 103.804 316.234 103.456 316.618 103.216C317.002 102.976 317.45 102.856 317.962 102.856C318.674 102.856 319.21 103.052 319.57 103.444C319.93 103.828 320.11 104.428 320.11 105.244V109H319.018V105.304C319.018 104.752 318.91 104.356 318.694 104.116C318.478 103.868 318.142 103.744 317.686 103.744C317.142 103.744 316.71 103.908 316.39 104.236C316.078 104.564 315.922 105.008 315.922 105.568V109H314.83ZM324.2 109.108C323.672 109.108 323.208 108.984 322.808 108.736C322.408 108.488 322.096 108.128 321.872 107.656C321.648 107.184 321.536 106.624 321.536 105.976C321.536 105.328 321.648 104.772 321.872 104.308C322.096 103.836 322.408 103.476 322.808 103.228C323.208 102.98 323.672 102.856 324.2 102.856C324.728 102.856 325.188 102.988 325.58 103.252C325.98 103.516 326.248 103.88 326.384 104.344H326.24V100.168H327.332V109H326.252V107.596H326.384C326.256 108.068 325.992 108.44 325.592 108.712C325.2 108.976 324.736 109.108 324.2 109.108ZM324.452 108.244C324.996 108.244 325.432 108.052 325.76 107.668C326.096 107.284 326.264 106.72 326.264 105.976C326.264 105.232 326.096 104.672 325.76 104.296C325.432 103.92 324.996 103.732 324.452 103.732C323.908 103.732 323.468 103.92 323.132 104.296C322.804 104.672 322.64 105.232 322.64 105.976C322.64 106.72 322.804 107.284 323.132 107.668C323.468 108.052 323.908 108.244 324.452 108.244ZM334.63 109.108C334.102 109.108 333.638 108.984 333.238 108.736C332.838 108.488 332.526 108.128 332.302 107.656C332.078 107.184 331.966 106.624 331.966 105.976C331.966 105.328 332.078 104.772 332.302 104.308C332.526 103.836 332.838 103.476 333.238 103.228C333.638 102.98 334.102 102.856 334.63 102.856C335.166 102.856 335.63 102.992 336.022 103.264C336.422 103.528 336.686 103.892 336.814 104.356H336.67L336.802 102.964H337.858C337.834 103.204 337.81 103.444 337.786 103.684C337.77 103.924 337.762 104.16 337.762 104.392V109H336.67V107.62H336.802C336.674 108.076 336.41 108.44 336.01 108.712C335.618 108.976 335.158 109.108 334.63 109.108ZM334.882 108.244C335.426 108.244 335.862 108.052 336.19 107.668C336.518 107.284 336.682 106.72 336.682 105.976C336.682 105.232 336.518 104.672 336.19 104.296C335.862 103.92 335.426 103.732 334.882 103.732C334.338 103.732 333.898 103.92 333.562 104.296C333.234 104.672 333.07 105.232 333.07 105.976C333.07 106.72 333.234 107.284 333.562 107.668C333.89 108.052 334.33 108.244 334.882 108.244ZM339.592 109V104.392C339.592 104.16 339.584 103.924 339.568 103.684C339.552 103.444 339.528 103.204 339.496 102.964H340.552L340.672 104.26H340.528C340.712 103.804 340.996 103.456 341.38 103.216C341.764 102.976 342.212 102.856 342.724 102.856C343.436 102.856 343.972 103.052 344.332 103.444C344.692 103.828 344.872 104.428 344.872 105.244V109H343.78V105.304C343.78 104.752 343.672 104.356 343.456 104.116C343.24 103.868 342.904 103.744 342.448 103.744C341.904 103.744 341.472 103.908 341.152 104.236C340.84 104.564 340.684 105.008 340.684 105.568V109H339.592ZM348.962 109.108C348.434 109.108 347.97 108.984 347.57 108.736C347.17 108.488 346.858 108.128 346.634 107.656C346.41 107.184 346.298 106.624 346.298 105.976C346.298 105.328 346.41 104.772 346.634 104.308C346.858 103.836 347.17 103.476 347.57 103.228C347.97 102.98 348.434 102.856 348.962 102.856C349.49 102.856 349.95 102.988 350.342 103.252C350.742 103.516 351.01 103.88 351.146 104.344H351.002V100.168H352.094V109H351.014V107.596H351.146C351.018 108.068 350.754 108.44 350.354 108.712C349.962 108.976 349.498 109.108 348.962 109.108ZM349.214 108.244C349.758 108.244 350.194 108.052 350.522 107.668C350.858 107.284 351.026 106.72 351.026 105.976C351.026 105.232 350.858 104.672 350.522 104.296C350.194 103.92 349.758 103.732 349.214 103.732C348.67 103.732 348.23 103.92 347.894 104.296C347.566 104.672 347.402 105.232 347.402 105.976C347.402 106.72 347.566 107.284 347.894 107.668C348.23 108.052 348.67 108.244 349.214 108.244ZM356.228 109.108C355.7 109.108 355.236 108.984 354.836 108.736C354.436 108.488 354.124 108.128 353.9 107.656C353.676 107.184 353.564 106.624 353.564 105.976C353.564 105.328 353.676 104.772 353.9 104.308C354.124 103.836 354.436 103.476 354.836 103.228C355.236 102.98 355.7 102.856 356.228 102.856C356.764 102.856 357.228 102.992 357.62 103.264C358.02 103.528 358.284 103.892 358.412 104.356H358.268L358.4 102.964H359.456C359.432 103.204 359.408 103.444 359.384 103.684C359.368 103.924 359.36 104.16 359.36 104.392V109H358.268V107.62H358.4C358.272 108.076 358.008 108.44 357.608 108.712C357.216 108.976 356.756 109.108 356.228 109.108ZM356.48 108.244C357.024 108.244 357.46 108.052 357.788 107.668C358.116 107.284 358.28 106.72 358.28 105.976C358.28 105.232 358.116 104.672 357.788 104.296C357.46 103.92 357.024 103.732 356.48 103.732C355.936 103.732 355.496 103.92 355.16 104.296C354.832 104.672 354.668 105.232 354.668 105.976C354.668 106.72 354.832 107.284 355.16 107.668C355.488 108.052 355.928 108.244 356.48 108.244Z" fill="#9E9E9E"/>
</svg>
