<svg width="347" height="150" viewBox="0 0 347 150" fill="none" xmlns="http://www.w3.org/2000/svg">
<rect x="0.5" y="0.5" width="346" height="149" rx="7.5" fill="#F7F8FD" stroke="#C2C2C2" stroke-dasharray="10 10"/>
<path d="M182 63.6667H163.334V45H175.334V42.3334H163.334C161.867 42.3334 160.667 43.5334 160.667 45V63.6667C160.667 65.1334 161.867 66.3334 163.334 66.3334H182C183.467 66.3334 184.667 65.1334 184.667 63.6667V51.6667H182V63.6667ZM171.614 59.44L169 56.2934L165.334 61H180L175.28 54.72L171.614 59.44ZM184.667 42.3334V38.3334H182V42.3334H178C178.014 42.3467 178 45 178 45H182V48.9867C182.014 49 184.667 48.9867 184.667 48.9867V45H188.667V42.3334H184.667Z" fill="#9E9E9E"/>
<path d="M129.767 91V83.488H126.839V82.54H133.835V83.488H130.895V91H129.767ZM136.286 91.108C135.758 91.108 135.294 90.984 134.894 90.736C134.494 90.488 134.182 90.128 133.958 89.656C133.734 89.184 133.622 88.624 133.622 87.976C133.622 87.328 133.734 86.772 133.958 86.308C134.182 85.836 134.494 85.476 134.894 85.228C135.294 84.98 135.758 84.856 136.286 84.856C136.822 84.856 137.286 84.992 137.678 85.264C138.078 85.528 138.342 85.892 138.47 86.356H138.326L138.458 84.964H139.514C139.49 85.204 139.466 85.444 139.442 85.684C139.426 85.924 139.418 86.16 139.418 86.392V91H138.326V89.62H138.458C138.33 90.076 138.066 90.44 137.666 90.712C137.274 90.976 136.814 91.108 136.286 91.108ZM136.538 90.244C137.082 90.244 137.518 90.052 137.846 89.668C138.174 89.284 138.338 88.72 138.338 87.976C138.338 87.232 138.174 86.672 137.846 86.296C137.518 85.92 137.082 85.732 136.538 85.732C135.994 85.732 135.554 85.92 135.218 86.296C134.89 86.672 134.726 87.232 134.726 87.976C134.726 88.72 134.89 89.284 135.218 89.668C135.546 90.052 135.986 90.244 136.538 90.244ZM141.248 91V86.392C141.248 86.16 141.24 85.924 141.224 85.684C141.208 85.444 141.184 85.204 141.152 84.964H142.208L142.328 86.26H142.184C142.344 85.812 142.6 85.468 142.952 85.228C143.304 84.98 143.724 84.856 144.212 84.856C144.708 84.856 145.116 84.976 145.436 85.216C145.756 85.448 145.972 85.816 146.084 86.32H145.904C146.056 85.872 146.324 85.516 146.708 85.252C147.092 84.988 147.54 84.856 148.052 84.856C148.716 84.856 149.216 85.052 149.552 85.444C149.888 85.828 150.056 86.428 150.056 87.244V91H148.964V87.304C148.964 86.752 148.868 86.356 148.676 86.116C148.484 85.868 148.18 85.744 147.764 85.744C147.276 85.744 146.892 85.912 146.612 86.248C146.332 86.576 146.192 87.024 146.192 87.592V91H145.1V87.304C145.1 86.752 145.004 86.356 144.812 86.116C144.628 85.868 144.324 85.744 143.9 85.744C143.412 85.744 143.028 85.912 142.748 86.248C142.476 86.576 142.34 87.024 142.34 87.592V91H141.248ZM154.974 91.108C154.438 91.108 153.974 90.976 153.582 90.712C153.19 90.44 152.93 90.068 152.802 89.596H152.934V91H151.842V82.168H152.934V86.344H152.802C152.938 85.88 153.198 85.516 153.582 85.252C153.974 84.988 154.438 84.856 154.974 84.856C155.51 84.856 155.978 84.984 156.378 85.24C156.778 85.488 157.086 85.844 157.302 86.308C157.526 86.772 157.638 87.332 157.638 87.988C157.638 88.636 157.526 89.196 157.302 89.668C157.086 90.132 156.774 90.488 156.366 90.736C155.966 90.984 155.502 91.108 154.974 91.108ZM154.722 90.244C155.266 90.244 155.702 90.056 156.03 89.68C156.366 89.296 156.534 88.732 156.534 87.988C156.534 87.244 156.366 86.684 156.03 86.308C155.702 85.924 155.266 85.732 154.722 85.732C154.17 85.732 153.73 85.92 153.402 86.296C153.082 86.672 152.922 87.232 152.922 87.976C152.922 88.72 153.082 89.284 153.402 89.668C153.73 90.052 154.17 90.244 154.722 90.244ZM161.411 91.108C160.883 91.108 160.419 90.984 160.019 90.736C159.619 90.488 159.307 90.128 159.083 89.656C158.859 89.184 158.747 88.624 158.747 87.976C158.747 87.328 158.859 86.772 159.083 86.308C159.307 85.836 159.619 85.476 160.019 85.228C160.419 84.98 160.883 84.856 161.411 84.856C161.947 84.856 162.411 84.992 162.803 85.264C163.203 85.528 163.467 85.892 163.595 86.356H163.451L163.583 84.964H164.639C164.615 85.204 164.591 85.444 164.567 85.684C164.551 85.924 164.543 86.16 164.543 86.392V91H163.451V89.62H163.583C163.455 90.076 163.191 90.44 162.791 90.712C162.399 90.976 161.939 91.108 161.411 91.108ZM161.663 90.244C162.207 90.244 162.643 90.052 162.971 89.668C163.299 89.284 163.463 88.72 163.463 87.976C163.463 87.232 163.299 86.672 162.971 86.296C162.643 85.92 162.207 85.732 161.663 85.732C161.119 85.732 160.679 85.92 160.343 86.296C160.015 86.672 159.851 87.232 159.851 87.976C159.851 88.72 160.015 89.284 160.343 89.668C160.671 90.052 161.111 90.244 161.663 90.244ZM166.373 91V82.168H167.465V86.272H167.309C167.485 85.808 167.769 85.456 168.161 85.216C168.553 84.976 169.005 84.856 169.517 84.856C170.245 84.856 170.781 85.052 171.125 85.444C171.477 85.836 171.653 86.428 171.653 87.22V91H170.561V87.28C170.561 86.744 170.457 86.356 170.249 86.116C170.041 85.868 169.701 85.744 169.229 85.744C168.701 85.744 168.273 85.908 167.945 86.236C167.625 86.564 167.465 87 167.465 87.544V91H166.373ZM173.439 91V82.168H174.531V87.628H174.555L177.279 84.964H178.635L175.395 88.132L175.407 87.616L178.923 91H177.531L174.555 88.192H174.531V91H173.439ZM181.966 91.108C181.438 91.108 180.974 90.984 180.574 90.736C180.174 90.488 179.862 90.128 179.638 89.656C179.414 89.184 179.302 88.624 179.302 87.976C179.302 87.328 179.414 86.772 179.638 86.308C179.862 85.836 180.174 85.476 180.574 85.228C180.974 84.98 181.438 84.856 181.966 84.856C182.502 84.856 182.966 84.992 183.358 85.264C183.758 85.528 184.022 85.892 184.15 86.356H184.006L184.138 84.964H185.194C185.17 85.204 185.146 85.444 185.122 85.684C185.106 85.924 185.098 86.16 185.098 86.392V91H184.006V89.62H184.138C184.01 90.076 183.746 90.44 183.346 90.712C182.954 90.976 182.494 91.108 181.966 91.108ZM182.218 90.244C182.762 90.244 183.198 90.052 183.526 89.668C183.854 89.284 184.018 88.72 184.018 87.976C184.018 87.232 183.854 86.672 183.526 86.296C183.198 85.92 182.762 85.732 182.218 85.732C181.674 85.732 181.234 85.92 180.898 86.296C180.57 86.672 180.406 87.232 180.406 87.976C180.406 88.72 180.57 89.284 180.898 89.668C181.226 90.052 181.666 90.244 182.218 90.244ZM186.928 91V86.392C186.928 86.16 186.92 85.924 186.904 85.684C186.888 85.444 186.864 85.204 186.832 84.964H187.888L188.008 86.26H187.864C188.048 85.804 188.332 85.456 188.716 85.216C189.1 84.976 189.548 84.856 190.06 84.856C190.772 84.856 191.308 85.052 191.668 85.444C192.028 85.828 192.208 86.428 192.208 87.244V91H191.116V87.304C191.116 86.752 191.008 86.356 190.792 86.116C190.576 85.868 190.24 85.744 189.784 85.744C189.24 85.744 188.808 85.908 188.488 86.236C188.176 86.564 188.02 87.008 188.02 87.568V91H186.928ZM197.158 91V82.168H198.25V91H197.158ZM202.62 91.108C202.028 91.108 201.516 90.984 201.084 90.736C200.652 90.48 200.316 90.12 200.076 89.656C199.836 89.184 199.716 88.624 199.716 87.976C199.716 87.336 199.836 86.784 200.076 86.32C200.316 85.848 200.652 85.488 201.084 85.24C201.516 84.984 202.028 84.856 202.62 84.856C203.212 84.856 203.724 84.984 204.156 85.24C204.596 85.488 204.932 85.848 205.164 86.32C205.404 86.784 205.524 87.336 205.524 87.976C205.524 88.624 205.404 89.184 205.164 89.656C204.932 90.12 204.596 90.48 204.156 90.736C203.724 90.984 203.212 91.108 202.62 91.108ZM202.62 90.244C203.164 90.244 203.6 90.052 203.928 89.668C204.256 89.284 204.42 88.72 204.42 87.976C204.42 87.232 204.256 86.672 203.928 86.296C203.6 85.92 203.164 85.732 202.62 85.732C202.068 85.732 201.628 85.92 201.3 86.296C200.98 86.672 200.82 87.232 200.82 87.976C200.82 88.72 200.98 89.284 201.3 89.668C201.628 90.052 202.068 90.244 202.62 90.244ZM209.678 93.688C209.15 93.688 208.666 93.624 208.226 93.496C207.786 93.368 207.39 93.172 207.038 92.908L207.326 92.104C207.574 92.272 207.818 92.408 208.058 92.512C208.298 92.616 208.546 92.692 208.802 92.74C209.066 92.788 209.338 92.812 209.618 92.812C210.21 92.812 210.654 92.66 210.95 92.356C211.246 92.052 211.394 91.62 211.394 91.06V89.368H211.514C211.386 89.824 211.122 90.188 210.722 90.46C210.33 90.724 209.866 90.856 209.33 90.856C208.786 90.856 208.31 90.736 207.902 90.496C207.502 90.248 207.19 89.9 206.966 89.452C206.742 88.996 206.63 88.464 206.63 87.856C206.63 87.24 206.742 86.708 206.966 86.26C207.19 85.812 207.502 85.468 207.902 85.228C208.31 84.98 208.786 84.856 209.33 84.856C209.866 84.856 210.33 84.988 210.722 85.252C211.114 85.516 211.374 85.88 211.502 86.344L211.394 86.236L211.502 84.964H212.558C212.534 85.204 212.51 85.444 212.486 85.684C212.47 85.924 212.462 86.16 212.462 86.392V90.928C212.462 91.824 212.226 92.508 211.754 92.98C211.29 93.452 210.598 93.688 209.678 93.688ZM209.57 89.992C210.122 89.992 210.562 89.804 210.89 89.428C211.218 89.052 211.382 88.528 211.382 87.856C211.382 87.176 211.218 86.652 210.89 86.284C210.562 85.916 210.122 85.732 209.57 85.732C209.01 85.732 208.562 85.916 208.226 86.284C207.898 86.652 207.734 87.176 207.734 87.856C207.734 88.528 207.898 89.052 208.226 89.428C208.562 89.804 209.01 89.992 209.57 89.992ZM216.835 91.108C216.243 91.108 215.731 90.984 215.299 90.736C214.867 90.48 214.531 90.12 214.291 89.656C214.051 89.184 213.931 88.624 213.931 87.976C213.931 87.336 214.051 86.784 214.291 86.32C214.531 85.848 214.867 85.488 215.299 85.24C215.731 84.984 216.243 84.856 216.835 84.856C217.427 84.856 217.939 84.984 218.371 85.24C218.811 85.488 219.147 85.848 219.379 86.32C219.619 86.784 219.739 87.336 219.739 87.976C219.739 88.624 219.619 89.184 219.379 89.656C219.147 90.12 218.811 90.48 218.371 90.736C217.939 90.984 217.427 91.108 216.835 91.108ZM216.835 90.244C217.379 90.244 217.815 90.052 218.143 89.668C218.471 89.284 218.635 88.72 218.635 87.976C218.635 87.232 218.471 86.672 218.143 86.296C217.815 85.92 217.379 85.732 216.835 85.732C216.283 85.732 215.843 85.92 215.515 86.296C215.195 86.672 215.035 87.232 215.035 87.976C215.035 88.72 215.195 89.284 215.515 89.668C215.843 90.052 216.283 90.244 216.835 90.244ZM124.836 111.592V104.392C124.836 104.16 124.828 103.924 124.812 103.684C124.796 103.444 124.772 103.204 124.74 102.964H125.796L125.928 104.356H125.796C125.916 103.892 126.172 103.528 126.564 103.264C126.956 102.992 127.424 102.856 127.968 102.856C128.504 102.856 128.972 102.98 129.372 103.228C129.772 103.476 130.08 103.836 130.296 104.308C130.52 104.772 130.632 105.328 130.632 105.976C130.632 106.624 130.52 107.184 130.296 107.656C130.08 108.128 129.772 108.488 129.372 108.736C128.972 108.984 128.504 109.108 127.968 109.108C127.432 109.108 126.968 108.976 126.576 108.712C126.192 108.44 125.932 108.076 125.796 107.62H125.928V111.592H124.836ZM127.716 108.244C128.268 108.244 128.708 108.052 129.036 107.668C129.364 107.284 129.528 106.72 129.528 105.976C129.528 105.232 129.364 104.672 129.036 104.296C128.708 103.92 128.268 103.732 127.716 103.732C127.164 103.732 126.724 103.92 126.396 104.296C126.076 104.672 125.916 105.232 125.916 105.976C125.916 106.72 126.076 107.284 126.396 107.668C126.724 108.052 127.164 108.244 127.716 108.244ZM134.849 109.108C134.209 109.108 133.657 108.984 133.193 108.736C132.729 108.488 132.369 108.132 132.113 107.668C131.865 107.204 131.741 106.648 131.741 106C131.741 105.36 131.861 104.808 132.101 104.344C132.349 103.872 132.689 103.508 133.121 103.252C133.553 102.988 134.057 102.856 134.633 102.856C135.185 102.856 135.653 102.976 136.037 103.216C136.421 103.448 136.713 103.78 136.913 104.212C137.113 104.644 137.213 105.156 137.213 105.748V106.108H132.593V105.46H136.469L136.265 105.616C136.265 104.992 136.125 104.508 135.845 104.164C135.573 103.82 135.169 103.648 134.633 103.648C134.241 103.648 133.909 103.74 133.637 103.924C133.365 104.108 133.157 104.368 133.013 104.704C132.869 105.04 132.797 105.44 132.797 105.904V106.012C132.797 106.748 132.977 107.304 133.337 107.68C133.705 108.056 134.213 108.244 134.861 108.244C135.221 108.244 135.557 108.192 135.869 108.088C136.181 107.984 136.481 107.812 136.769 107.572L137.129 108.328C136.857 108.576 136.517 108.768 136.109 108.904C135.709 109.04 135.289 109.108 134.849 109.108ZM138.629 109V104.44C138.629 104.2 138.621 103.956 138.605 103.708C138.597 103.452 138.577 103.204 138.545 102.964H139.601L139.733 104.476L139.553 104.488C139.633 104.12 139.769 103.816 139.961 103.576C140.161 103.328 140.397 103.148 140.669 103.036C140.949 102.916 141.237 102.856 141.533 102.856C141.661 102.856 141.769 102.86 141.857 102.868C141.945 102.876 142.033 102.896 142.121 102.928L142.097 103.9C141.977 103.852 141.865 103.824 141.761 103.816C141.665 103.8 141.545 103.792 141.401 103.792C141.049 103.792 140.745 103.872 140.489 104.032C140.241 104.192 140.049 104.404 139.913 104.668C139.785 104.932 139.721 105.216 139.721 105.52V109H138.629ZM145.23 109.108C144.502 109.108 143.954 108.912 143.586 108.52C143.226 108.12 143.046 107.516 143.046 106.708V102.964H144.138V106.684C144.138 107.212 144.246 107.6 144.462 107.848C144.678 108.096 145.01 108.22 145.458 108.22C145.962 108.22 146.366 108.056 146.67 107.728C146.982 107.392 147.138 106.948 147.138 106.396V102.964H148.23V109H147.174V107.668H147.33C147.162 108.124 146.89 108.48 146.514 108.736C146.146 108.984 145.718 109.108 145.23 109.108ZM152.106 109.108C151.618 109.108 151.162 109.044 150.738 108.916C150.322 108.788 149.978 108.604 149.706 108.364L150.054 107.608C150.35 107.832 150.674 108.004 151.026 108.124C151.386 108.236 151.754 108.292 152.13 108.292C152.586 108.292 152.93 108.208 153.162 108.04C153.402 107.872 153.522 107.648 153.522 107.368C153.522 107.144 153.446 106.964 153.294 106.828C153.142 106.692 152.902 106.592 152.574 106.528L151.434 106.3C150.922 106.18 150.534 105.988 150.27 105.724C150.014 105.452 149.886 105.104 149.886 104.68C149.886 104.328 149.982 104.016 150.174 103.744C150.366 103.464 150.638 103.248 150.99 103.096C151.35 102.936 151.77 102.856 152.25 102.856C152.69 102.856 153.098 102.92 153.474 103.048C153.858 103.176 154.174 103.364 154.422 103.612L154.062 104.344C153.814 104.128 153.534 103.964 153.222 103.852C152.918 103.732 152.606 103.672 152.286 103.672C151.822 103.672 151.478 103.764 151.254 103.948C151.03 104.124 150.918 104.356 150.918 104.644C150.918 104.86 150.986 105.04 151.122 105.184C151.258 105.32 151.478 105.424 151.782 105.496L152.922 105.724C153.458 105.836 153.862 106.02 154.134 106.276C154.406 106.532 154.542 106.872 154.542 107.296C154.542 107.672 154.438 107.996 154.23 108.268C154.03 108.54 153.746 108.748 153.378 108.892C153.018 109.036 152.594 109.108 152.106 109.108ZM158.335 109.108C157.807 109.108 157.343 108.984 156.943 108.736C156.543 108.488 156.231 108.128 156.007 107.656C155.783 107.184 155.671 106.624 155.671 105.976C155.671 105.328 155.783 104.772 156.007 104.308C156.231 103.836 156.543 103.476 156.943 103.228C157.343 102.98 157.807 102.856 158.335 102.856C158.871 102.856 159.335 102.992 159.727 103.264C160.127 103.528 160.391 103.892 160.519 104.356H160.375L160.507 102.964H161.563C161.539 103.204 161.515 103.444 161.491 103.684C161.475 103.924 161.467 104.16 161.467 104.392V109H160.375V107.62H160.507C160.379 108.076 160.115 108.44 159.715 108.712C159.323 108.976 158.863 109.108 158.335 109.108ZM158.587 108.244C159.131 108.244 159.567 108.052 159.895 107.668C160.223 107.284 160.387 106.72 160.387 105.976C160.387 105.232 160.223 104.672 159.895 104.296C159.567 103.92 159.131 103.732 158.587 103.732C158.043 103.732 157.603 103.92 157.267 104.296C156.939 104.672 156.775 105.232 156.775 105.976C156.775 106.72 156.939 107.284 157.267 107.668C157.595 108.052 158.035 108.244 158.587 108.244ZM163.297 109V100.168H164.389V104.272H164.233C164.409 103.808 164.693 103.456 165.085 103.216C165.477 102.976 165.929 102.856 166.441 102.856C167.169 102.856 167.705 103.052 168.049 103.444C168.401 103.836 168.577 104.428 168.577 105.22V109H167.485V105.28C167.485 104.744 167.381 104.356 167.173 104.116C166.965 103.868 166.625 103.744 166.153 103.744C165.625 103.744 165.197 103.908 164.869 104.236C164.549 104.564 164.389 105 164.389 105.544V109H163.297ZM172.667 109.108C172.139 109.108 171.675 108.984 171.275 108.736C170.875 108.488 170.563 108.128 170.339 107.656C170.115 107.184 170.003 106.624 170.003 105.976C170.003 105.328 170.115 104.772 170.339 104.308C170.563 103.836 170.875 103.476 171.275 103.228C171.675 102.98 172.139 102.856 172.667 102.856C173.203 102.856 173.667 102.992 174.059 103.264C174.459 103.528 174.723 103.892 174.851 104.356H174.707L174.839 102.964H175.895C175.871 103.204 175.847 103.444 175.823 103.684C175.807 103.924 175.799 104.16 175.799 104.392V109H174.707V107.62H174.839C174.711 108.076 174.447 108.44 174.047 108.712C173.655 108.976 173.195 109.108 172.667 109.108ZM172.919 108.244C173.463 108.244 173.899 108.052 174.227 107.668C174.555 107.284 174.719 106.72 174.719 105.976C174.719 105.232 174.555 104.672 174.227 104.296C173.899 103.92 173.463 103.732 172.919 103.732C172.375 103.732 171.935 103.92 171.599 104.296C171.271 104.672 171.107 105.232 171.107 105.976C171.107 106.72 171.271 107.284 171.599 107.668C171.927 108.052 172.367 108.244 172.919 108.244ZM179.933 109.108C179.405 109.108 178.941 108.984 178.541 108.736C178.141 108.488 177.829 108.128 177.605 107.656C177.381 107.184 177.269 106.624 177.269 105.976C177.269 105.328 177.381 104.772 177.605 104.308C177.829 103.836 178.141 103.476 178.541 103.228C178.941 102.98 179.405 102.856 179.933 102.856C180.469 102.856 180.933 102.992 181.325 103.264C181.725 103.528 181.989 103.892 182.117 104.356H181.973L182.105 102.964H183.161C183.137 103.204 183.113 103.444 183.089 103.684C183.073 103.924 183.065 104.16 183.065 104.392V109H181.973V107.62H182.105C181.977 108.076 181.713 108.44 181.313 108.712C180.921 108.976 180.461 109.108 179.933 109.108ZM180.185 108.244C180.729 108.244 181.165 108.052 181.493 107.668C181.821 107.284 181.985 106.72 181.985 105.976C181.985 105.232 181.821 104.672 181.493 104.296C181.165 103.92 180.729 103.732 180.185 103.732C179.641 103.732 179.201 103.92 178.865 104.296C178.537 104.672 178.373 105.232 178.373 105.976C178.373 106.72 178.537 107.284 178.865 107.668C179.193 108.052 179.633 108.244 180.185 108.244ZM184.894 109V104.392C184.894 104.16 184.886 103.924 184.87 103.684C184.854 103.444 184.83 103.204 184.798 102.964H185.854L185.974 104.26H185.83C186.014 103.804 186.298 103.456 186.682 103.216C187.066 102.976 187.514 102.856 188.026 102.856C188.738 102.856 189.274 103.052 189.634 103.444C189.994 103.828 190.174 104.428 190.174 105.244V109H189.082V105.304C189.082 104.752 188.974 104.356 188.758 104.116C188.542 103.868 188.206 103.744 187.75 103.744C187.206 103.744 186.774 103.908 186.454 104.236C186.142 104.564 185.986 105.008 185.986 105.568V109H184.894ZM197.429 109.108C196.901 109.108 196.437 108.984 196.037 108.736C195.637 108.488 195.325 108.128 195.101 107.656C194.877 107.184 194.765 106.624 194.765 105.976C194.765 105.328 194.877 104.772 195.101 104.308C195.325 103.836 195.637 103.476 196.037 103.228C196.437 102.98 196.901 102.856 197.429 102.856C197.965 102.856 198.429 102.992 198.821 103.264C199.221 103.528 199.485 103.892 199.613 104.356H199.469L199.601 102.964H200.657C200.633 103.204 200.609 103.444 200.585 103.684C200.569 103.924 200.561 104.16 200.561 104.392V109H199.469V107.62H199.601C199.473 108.076 199.209 108.44 198.809 108.712C198.417 108.976 197.957 109.108 197.429 109.108ZM197.681 108.244C198.225 108.244 198.661 108.052 198.989 107.668C199.317 107.284 199.481 106.72 199.481 105.976C199.481 105.232 199.317 104.672 198.989 104.296C198.661 103.92 198.225 103.732 197.681 103.732C197.137 103.732 196.697 103.92 196.361 104.296C196.033 104.672 195.869 105.232 195.869 105.976C195.869 106.72 196.033 107.284 196.361 107.668C196.689 108.052 197.129 108.244 197.681 108.244ZM202.391 109V104.392C202.391 104.16 202.383 103.924 202.367 103.684C202.351 103.444 202.327 103.204 202.295 102.964H203.351L203.471 104.26H203.327C203.511 103.804 203.795 103.456 204.179 103.216C204.563 102.976 205.011 102.856 205.523 102.856C206.235 102.856 206.771 103.052 207.131 103.444C207.491 103.828 207.671 104.428 207.671 105.244V109H206.579V105.304C206.579 104.752 206.471 104.356 206.255 104.116C206.039 103.868 205.703 103.744 205.247 103.744C204.703 103.744 204.271 103.908 203.951 104.236C203.639 104.564 203.483 105.008 203.483 105.568V109H202.391ZM211.761 109.108C211.233 109.108 210.769 108.984 210.369 108.736C209.969 108.488 209.657 108.128 209.433 107.656C209.209 107.184 209.097 106.624 209.097 105.976C209.097 105.328 209.209 104.772 209.433 104.308C209.657 103.836 209.969 103.476 210.369 103.228C210.769 102.98 211.233 102.856 211.761 102.856C212.289 102.856 212.749 102.988 213.141 103.252C213.541 103.516 213.809 103.88 213.945 104.344H213.801V100.168H214.893V109H213.813V107.596H213.945C213.817 108.068 213.553 108.44 213.153 108.712C212.761 108.976 212.297 109.108 211.761 109.108ZM212.013 108.244C212.557 108.244 212.993 108.052 213.321 107.668C213.657 107.284 213.825 106.72 213.825 105.976C213.825 105.232 213.657 104.672 213.321 104.296C212.993 103.92 212.557 103.732 212.013 103.732C211.469 103.732 211.029 103.92 210.693 104.296C210.365 104.672 210.201 105.232 210.201 105.976C210.201 106.72 210.365 107.284 210.693 107.668C211.029 108.052 211.469 108.244 212.013 108.244ZM219.027 109.108C218.499 109.108 218.035 108.984 217.635 108.736C217.235 108.488 216.923 108.128 216.699 107.656C216.475 107.184 216.363 106.624 216.363 105.976C216.363 105.328 216.475 104.772 216.699 104.308C216.923 103.836 217.235 103.476 217.635 103.228C218.035 102.98 218.499 102.856 219.027 102.856C219.563 102.856 220.027 102.992 220.419 103.264C220.819 103.528 221.083 103.892 221.211 104.356H221.067L221.199 102.964H222.255C222.231 103.204 222.207 103.444 222.183 103.684C222.167 103.924 222.159 104.16 222.159 104.392V109H221.067V107.62H221.199C221.071 108.076 220.807 108.44 220.407 108.712C220.015 108.976 219.555 109.108 219.027 109.108ZM219.279 108.244C219.823 108.244 220.259 108.052 220.587 107.668C220.915 107.284 221.079 106.72 221.079 105.976C221.079 105.232 220.915 104.672 220.587 104.296C220.259 103.92 219.823 103.732 219.279 103.732C218.735 103.732 218.295 103.92 217.959 104.296C217.631 104.672 217.467 105.232 217.467 105.976C217.467 106.72 217.631 107.284 217.959 107.668C218.287 108.052 218.727 108.244 219.279 108.244Z" fill="#9E9E9E"/>
</svg>
